<svg id="svg" version="1.1" xmlns="http://www.w3.org/2000/svg" xmlns:xlink="http://www.w3.org/1999/xlink" width="400" height="400" viewBox="0, 0, 400,400"><g id="svgg"><path id="path0" d="M0.133 0.133 C 0.060 0.207,-0.000 90.207,-0.000 200.133 L 0.000 400.000 200.000 400.000 L 400.000 400.000 400.000 200.000 L 400.000 0.000 200.133 0.000 C 90.207 0.000,0.207 0.060,0.133 0.133 M203.696 172.225 C 205.281 172.526,208.027 173.398,208.357 173.705 C 208.445 173.788,207.682 174.147,206.659 174.504 C 204.882 175.125,199.960 177.185,199.747 177.397 C 199.692 177.453,199.793 177.723,199.973 177.998 C 200.388 178.631,200.385 178.835,199.955 179.000 C 199.628 179.125,199.351 178.895,198.912 178.131 C 198.767 177.878,194.470 179.885,193.835 180.502 C 193.261 181.060,194.258 181.797,195.596 181.803 C 198.142 181.815,199.392 184.380,197.783 186.292 C 197.303 186.862,197.295 186.914,197.596 187.497 C 197.999 188.276,197.821 188.316,200.563 186.830 C 203.389 185.299,203.210 185.464,202.776 184.801 C 202.433 184.278,202.435 184.249,202.810 183.973 C 203.151 183.722,203.223 183.727,203.398 184.015 C 204.039 185.065,203.880 185.068,206.426 183.963 C 209.966 182.428,215.556 180.510,216.492 180.510 C 216.563 180.510,216.972 181.124,217.400 181.874 L 218.178 183.239 219.036 182.234 C 219.507 181.682,220.095 180.934,220.341 180.571 C 221.225 179.273,225.215 179.854,226.438 181.459 C 228.025 183.541,226.404 187.243,221.814 192.017 L 220.097 193.803 219.794 195.417 C 217.499 207.629,205.370 214.765,193.553 210.856 C 191.308 210.113,191.311 210.134,193.354 209.416 C 195.477 208.670,199.535 206.962,200.010 206.614 C 200.365 206.355,200.365 206.326,200.018 205.796 C 199.722 205.345,199.707 205.216,199.929 205.075 C 200.386 204.786,200.599 204.873,200.972 205.505 L 201.331 206.112 203.064 205.176 C 204.018 204.660,205.176 204.021,205.638 203.755 L 206.478 203.272 206.159 202.603 C 205.845 201.946,205.821 201.936,204.806 202.041 C 202.051 202.325,200.654 199.444,202.541 197.370 C 202.920 196.954,202.921 196.921,202.576 196.371 C 202.380 196.058,202.203 195.775,202.183 195.742 C 202.153 195.694,197.185 198.228,196.932 198.420 C 196.894 198.449,197.029 198.756,197.232 199.101 C 197.593 199.717,197.593 199.736,197.208 200.019 C 196.844 200.286,196.787 200.255,196.453 199.604 C 196.018 198.755,196.412 198.711,193.694 199.915 C 191.328 200.963,185.561 202.979,184.280 203.206 C 183.557 203.334,183.547 203.327,182.757 202.007 L 181.961 200.679 181.110 201.639 C 180.642 202.167,180.034 202.936,179.758 203.348 C 179.182 204.211,178.592 204.295,176.379 203.831 C 171.439 202.796,172.187 198.234,178.348 191.827 C 180.036 190.071,180.059 190.034,180.302 188.628 C 182.212 177.625,192.847 170.167,203.696 172.225 M201.245 180.222 C 201.579 180.921,201.444 181.294,200.854 181.306 C 200.553 181.313,199.895 179.746,200.154 179.641 C 200.696 179.422,200.921 179.541,201.245 180.222 M202.560 183.258 C 202.073 183.619,202.011 183.587,201.620 182.768 C 201.058 181.588,201.768 181.145,202.441 182.255 C 202.864 182.954,202.873 183.027,202.560 183.258 M198.493 201.230 C 198.923 201.960,198.828 202.287,198.182 202.296 C 197.754 202.302,197.162 200.910,197.502 200.695 C 197.959 200.406,198.029 200.444,198.493 201.230 M199.778 203.484 C 200.160 204.138,199.973 204.609,199.402 204.428 C 198.961 204.289,198.424 203.070,198.721 202.882 C 199.128 202.625,199.350 202.751,199.778 203.484 M163.795 220.105 C 164.265 220.223,164.912 220.533,165.233 220.793 L 165.817 221.265 165.212 221.878 L 164.607 222.491 163.821 222.090 C 161.734 221.027,159.781 222.748,160.523 224.997 C 160.989 226.408,162.826 226.989,163.973 226.087 C 164.626 225.573,164.750 225.583,165.326 226.196 C 166.604 227.556,163.020 228.913,160.805 227.907 C 156.178 225.806,158.841 218.857,163.795 220.105 M148.926 220.990 L 148.926 221.889 147.726 221.889 L 146.527 221.889 146.527 224.988 L 146.527 228.086 145.627 228.086 L 144.728 228.086 144.728 224.988 L 144.728 221.889 143.528 221.889 L 142.329 221.889 142.329 220.990 L 142.329 220.090 145.627 220.090 L 148.926 220.090 148.926 220.990 M154.523 224.088 L 154.523 228.086 153.523 228.086 L 152.524 228.086 152.524 224.088 L 152.524 220.090 153.523 220.090 L 154.523 220.090 154.523 224.088 M171.324 221.739 L 171.334 223.388 172.884 221.739 L 174.434 220.090 175.473 220.090 C 176.803 220.090,176.796 220.118,175.010 221.892 C 174.183 222.713,173.548 223.489,173.597 223.617 C 173.646 223.746,174.306 224.691,175.064 225.718 C 176.960 228.290,176.911 228.086,175.634 228.086 L 174.534 228.086 173.388 226.486 L 172.242 224.885 171.778 225.321 C 171.396 225.680,171.314 225.962,171.314 226.921 L 171.314 228.086 170.415 228.086 L 169.515 228.086 169.515 224.088 L 169.515 220.090 170.415 220.090 L 171.314 220.090 171.324 221.739 M186.107 220.990 L 186.107 221.889 184.008 221.889 L 181.909 221.889 181.909 222.589 L 181.909 223.288 183.808 223.288 L 185.707 223.288 185.707 224.088 L 185.707 224.888 183.808 224.888 L 181.909 224.888 181.909 225.687 L 181.909 226.487 184.108 226.487 L 186.307 226.487 186.307 227.286 L 186.307 228.086 183.208 228.086 L 180.110 228.086 180.110 224.088 L 180.110 220.090 183.108 220.090 L 186.107 220.090 186.107 220.990 M196.102 220.990 L 196.102 221.889 194.903 221.889 L 193.703 221.889 193.703 224.988 L 193.703 228.086 192.804 228.086 L 191.904 228.086 191.904 224.988 L 191.904 221.889 190.705 221.889 L 189.505 221.889 189.505 220.990 L 189.505 220.090 192.804 220.090 L 196.102 220.090 196.102 220.990 M204.701 220.457 C 207.431 221.895,206.171 225.309,202.793 225.624 L 201.499 225.745 201.499 226.915 L 201.499 228.086 200.700 228.086 L 199.900 228.086 199.900 224.088 L 199.900 220.090 201.952 220.090 C 203.556 220.090,204.156 220.170,204.701 220.457 M211.294 223.388 L 211.294 226.687 213.393 226.687 L 215.492 226.687 215.492 227.386 L 215.492 228.086 212.694 228.086 L 209.895 228.086 209.895 224.088 L 209.895 220.090 210.595 220.090 L 211.294 220.090 211.294 223.388 M225.090 223.938 C 226.000 226.054,226.783 227.854,226.828 227.936 C 226.873 228.018,226.542 228.086,226.092 228.086 C 225.312 228.086,225.255 228.043,224.888 227.186 L 224.502 226.287 222.689 226.287 L 220.875 226.287 220.490 227.186 C 220.126 228.035,220.060 228.086,219.315 228.086 L 218.526 228.086 220.258 224.088 L 221.989 220.091 222.712 220.090 L 223.434 220.090 225.090 223.938 M233.983 222.746 L 235.982 225.387 236.038 222.739 L 236.094 220.090 236.787 220.090 L 237.481 220.090 237.481 224.088 L 237.481 228.086 236.826 228.086 C 236.219 228.086,236.021 227.890,234.177 225.458 L 232.184 222.831 232.128 225.458 L 232.072 228.086 231.279 228.086 L 230.485 228.086 230.485 224.088 L 230.485 220.090 231.234 220.098 C 231.959 220.105,232.050 220.192,233.983 222.746 M247.876 220.790 L 247.876 221.489 245.577 221.489 L 243.278 221.489 243.278 222.389 L 243.278 223.288 245.289 223.288 L 247.300 223.288 247.238 224.038 L 247.176 224.788 245.227 224.845 L 243.278 224.902 243.278 225.794 L 243.278 226.687 245.577 226.687 L 247.876 226.687 247.876 227.386 L 247.876 228.086 244.878 228.086 L 241.879 228.086 241.879 224.088 L 241.879 220.090 244.878 220.090 L 247.876 220.090 247.876 220.790 M257.671 220.790 L 257.671 221.489 256.472 221.489 L 255.272 221.489 255.272 224.788 L 255.272 228.086 254.473 228.086 L 253.673 228.086 253.673 224.788 L 253.673 221.489 252.474 221.489 L 251.274 221.489 251.274 220.790 L 251.274 220.090 254.473 220.090 L 257.671 220.090 257.671 220.790 M201.499 222.917 L 201.499 224.344 202.619 224.228 C 205.307 223.951,205.248 221.489,202.554 221.489 L 201.499 221.489 201.499 222.917 M222.098 223.338 C 221.854 223.916,221.607 224.500,221.550 224.638 C 221.474 224.822,221.773 224.888,222.689 224.888 C 223.604 224.888,223.904 224.822,223.827 224.638 C 223.096 222.877,222.812 222.289,222.689 222.289 C 222.608 222.289,222.342 222.761,222.098 223.338 " stroke="none" fill="#fbfbfb" fill-rule="evenodd"></path><path id="path1" d="M198.001 172.118 C 191.029 172.862,184.931 177.242,181.983 183.623 C 181.271 185.165,180.310 188.517,180.310 189.461 C 180.310 189.824,179.817 190.476,178.556 191.784 C 171.821 198.769,171.436 203.480,177.571 203.840 L 179.210 203.936 180.247 202.560 C 181.952 200.298,181.990 200.279,182.575 201.432 C 182.845 201.966,183.233 202.597,183.437 202.836 L 183.808 203.269 186.007 202.609 C 188.652 201.817,191.514 200.754,194.160 199.583 L 196.116 198.717 196.446 199.409 C 196.798 200.147,196.858 200.185,197.263 199.928 C 197.470 199.796,197.437 199.615,197.103 199.048 C 196.705 198.374,196.702 198.328,197.042 198.218 C 197.239 198.154,198.475 197.519,199.788 196.806 C 201.100 196.094,202.186 195.532,202.200 195.557 C 202.213 195.582,202.415 195.913,202.647 196.292 L 203.070 196.982 202.511 197.618 C 200.672 199.713,202.778 202.802,205.397 201.851 C 205.721 201.734,205.883 201.856,206.250 202.497 L 206.702 203.287 205.650 203.894 C 205.071 204.228,203.851 204.883,202.938 205.349 C 201.153 206.261,201.264 206.267,200.600 205.216 C 200.188 204.564,199.824 205.170,200.196 205.889 C 200.379 206.244,200.500 206.558,200.465 206.588 C 200.238 206.779,196.419 208.388,194.456 209.120 C 191.626 210.175,191.638 210.127,194.025 210.891 C 205.528 214.576,217.648 207.217,219.699 195.302 L 219.957 193.803 221.680 192.004 C 227.818 185.596,228.615 181.182,223.814 180.175 C 221.363 179.662,221.123 179.729,219.951 181.267 C 218.180 183.589,218.250 183.568,217.356 182.010 L 216.592 180.676 215.830 180.797 C 214.529 181.004,209.929 182.603,206.906 183.900 C 203.823 185.223,204.014 185.208,203.369 184.175 C 202.955 183.512,202.600 184.137,202.977 184.866 L 203.289 185.470 200.679 186.888 C 197.602 188.559,198.033 188.463,197.517 187.587 L 197.093 186.869 197.697 186.181 C 199.328 184.324,197.907 181.743,195.370 181.953 C 194.304 182.042,193.095 181.022,193.643 180.497 C 193.889 180.260,198.734 177.677,198.798 177.749 C 198.829 177.783,199.027 178.097,199.237 178.447 C 199.800 179.384,200.330 179.038,199.856 178.044 L 199.527 177.355 201.160 176.608 C 203.082 175.730,206.949 174.205,207.775 173.999 L 208.354 173.855 207.849 173.590 C 206.457 172.861,201.039 171.774,199.629 171.941 C 199.503 171.956,198.771 172.036,198.001 172.118 M200.315 179.700 C 200.101 179.833,200.121 179.984,200.418 180.487 C 200.991 181.456,201.702 181.282,201.193 180.297 C 200.837 179.610,200.659 179.488,200.315 179.700 M201.559 181.838 C 201.248 181.964,201.857 183.308,202.224 183.308 C 202.666 183.308,202.710 182.961,202.350 182.328 C 201.987 181.691,201.961 181.675,201.559 181.838 M197.451 200.816 C 197.230 201.038,198.116 202.281,198.414 202.166 C 198.770 202.030,198.769 202.012,198.396 201.289 C 198.111 200.739,197.723 200.545,197.451 200.816 M198.894 202.902 C 198.503 203.144,199.194 204.526,199.623 204.361 C 199.993 204.219,199.970 203.908,199.542 203.260 C 199.283 202.867,199.108 202.770,198.894 202.902 " stroke="none" fill="#13bd84" fill-rule="evenodd"></path><path id="path2" d="M200.950 172.052 C 201.142 172.102,201.457 172.102,201.649 172.052 C 201.842 172.002,201.684 171.960,201.299 171.960 C 200.915 171.960,200.757 172.002,200.950 172.052 M253.755 224.788 C 253.755 226.657,253.785 227.448,253.822 226.547 C 253.859 225.645,253.859 224.116,253.822 223.148 C 253.785 222.181,253.755 222.919,253.755 224.788 M201.649 225.628 C 201.897 225.676,202.301 225.676,202.549 225.628 C 202.796 225.581,202.594 225.542,202.099 225.542 C 201.604 225.542,201.402 225.581,201.649 225.628 M186.161 227.286 C 186.161 227.781,186.200 227.984,186.248 227.736 C 186.296 227.489,186.296 227.084,186.248 226.837 C 186.200 226.589,186.161 226.792,186.161 227.286 M212.244 226.834 C 212.821 226.874,213.766 226.874,214.343 226.834 C 214.920 226.794,214.448 226.761,213.293 226.761 C 212.139 226.761,211.667 226.794,212.244 226.834 M244.328 226.834 C 244.960 226.874,245.995 226.874,246.627 226.834 C 247.259 226.795,246.742 226.762,245.477 226.762 C 244.213 226.762,243.696 226.795,244.328 226.834 " stroke="none" fill="#9acaba" fill-rule="evenodd"></path><path id="path3" d="M142.329 220.985 L 142.329 221.889 143.528 221.889 L 144.728 221.889 144.728 224.988 L 144.728 228.086 145.627 228.086 L 146.527 228.086 146.527 224.997 L 146.527 221.909 147.676 221.849 L 148.826 221.789 148.826 220.990 L 148.826 220.190 145.577 220.135 L 142.329 220.080 142.329 220.985 M152.724 224.076 L 152.724 228.086 153.627 228.086 L 154.531 228.086 154.477 224.138 L 154.423 220.190 153.573 220.128 L 152.724 220.067 152.724 224.076 M160.920 220.314 C 158.687 221.202,157.793 224.481,159.230 226.515 C 160.578 228.424,163.374 228.822,165.120 227.354 L 165.740 226.832 165.209 226.278 L 164.678 225.724 163.998 226.125 C 162.277 227.141,160.321 226.057,160.321 224.088 C 160.321 222.091,162.714 220.920,164.148 222.215 C 164.555 222.583,164.569 222.579,165.144 221.890 C 165.693 221.233,165.707 221.176,165.373 220.919 C 164.346 220.132,162.134 219.831,160.920 220.314 M169.515 224.088 L 169.515 228.086 170.415 228.086 L 171.314 228.086 171.314 226.818 C 171.314 224.417,171.926 224.349,173.518 226.575 L 174.599 228.086 175.680 228.086 C 176.516 228.086,176.716 228.029,176.563 227.836 C 175.578 226.587,173.515 223.680,173.523 223.551 C 173.528 223.462,174.200 222.669,175.016 221.789 L 176.500 220.190 175.556 220.123 L 174.613 220.055 172.964 221.810 L 171.314 223.565 171.314 221.828 L 171.314 220.090 170.415 220.090 L 169.515 220.090 169.515 224.088 M180.243 220.223 C 180.170 220.297,180.110 222.096,180.110 224.221 L 180.110 228.086 183.108 228.086 L 186.107 228.086 186.107 227.286 L 186.107 226.487 184.008 226.487 L 181.909 226.487 181.909 225.687 L 181.909 224.888 183.808 224.888 L 185.707 224.888 185.707 224.088 L 185.707 223.288 183.808 223.288 L 181.909 223.288 181.909 222.489 L 181.909 221.689 184.008 221.689 L 186.107 221.689 186.107 220.890 L 186.107 220.090 183.242 220.090 C 181.666 220.090,180.317 220.150,180.243 220.223 M189.584 220.373 C 189.212 221.343,189.563 221.787,190.755 221.849 L 191.904 221.909 191.904 224.997 L 191.904 228.086 192.804 228.086 L 193.703 228.086 193.703 224.988 L 193.703 221.889 194.903 221.889 L 196.102 221.889 196.102 220.990 L 196.102 220.090 192.897 220.090 C 190.318 220.090,189.671 220.145,189.584 220.373 M199.900 224.066 L 199.900 228.086 200.600 228.086 L 201.299 228.086 201.299 226.787 L 201.299 225.487 202.609 225.487 C 205.239 225.487,206.773 223.644,205.756 221.703 C 205.097 220.444,204.541 220.205,202.088 220.121 L 199.900 220.046 199.900 224.066 M209.895 224.088 L 209.895 228.086 212.694 228.086 L 215.492 228.086 215.492 227.486 L 215.492 226.887 213.393 226.887 L 211.294 226.887 211.294 223.488 L 211.294 220.090 210.595 220.090 L 209.895 220.090 209.895 224.088 M222.015 220.248 C 221.856 220.505,218.691 227.870,218.691 227.983 C 218.691 228.627,220.093 227.982,220.420 227.187 L 220.790 226.288 222.689 226.288 L 224.588 226.288 224.957 227.187 C 225.293 228.004,225.389 228.086,226.007 228.086 C 226.879 228.086,226.950 228.393,225.039 223.940 C 223.389 220.095,223.388 220.093,222.750 220.092 C 222.400 220.091,222.069 220.161,222.015 220.248 M230.618 220.223 C 230.545 220.297,230.485 222.096,230.485 224.221 L 230.485 228.086 231.279 228.086 L 232.073 228.086 232.128 225.420 L 232.184 222.754 234.187 225.370 C 235.948 227.669,236.269 227.994,236.836 228.049 L 237.481 228.111 237.481 224.101 L 237.481 220.090 236.787 220.090 L 236.093 220.090 236.038 222.794 L 235.982 225.498 233.923 222.794 C 231.872 220.100,231.236 219.605,230.618 220.223 M241.879 224.088 L 241.879 228.086 244.878 228.086 L 247.876 228.086 247.876 227.486 L 247.876 226.887 245.577 226.887 L 243.278 226.887 243.278 225.787 L 243.278 224.688 245.277 224.688 L 247.276 224.688 247.276 224.088 L 247.276 223.488 245.277 223.488 L 243.278 223.488 243.278 222.489 L 243.278 221.489 245.477 221.489 L 247.676 221.489 247.676 220.790 L 247.676 220.090 244.778 220.090 L 241.879 220.090 241.879 224.088 M251.274 220.790 L 251.274 221.489 252.574 221.489 L 253.873 221.489 253.873 224.788 L 253.873 228.086 254.573 228.086 L 255.272 228.086 255.272 224.788 L 255.272 221.489 256.472 221.489 L 257.671 221.489 257.671 220.790 L 257.671 220.090 254.473 220.090 L 251.274 220.090 251.274 220.790 M204.149 221.839 C 205.233 223.052,204.304 224.288,202.309 224.288 L 201.299 224.288 201.299 222.889 L 201.299 221.489 202.568 221.489 C 203.523 221.489,203.913 221.576,204.149 221.839 M223.359 223.338 C 224.047 224.958,224.077 224.888,222.689 224.888 C 222.029 224.888,221.489 224.844,221.489 224.792 C 221.489 224.530,222.578 222.089,222.694 222.089 C 222.768 222.089,223.067 222.651,223.359 223.338 " stroke="none" fill="#7c7c7c" fill-rule="evenodd"></path><path id="path4" d="M178.604 191.554 L 177.411 192.804 178.661 191.610 C 179.348 190.954,179.910 190.392,179.910 190.361 C 179.910 190.213,179.713 190.394,178.604 191.554 M221.383 192.354 L 220.190 193.603 221.439 192.410 C 222.600 191.302,222.780 191.104,222.632 191.104 C 222.601 191.104,222.039 191.667,221.383 192.354 M178.311 203.898 L 177.211 204.033 178.249 204.065 C 178.820 204.083,179.342 204.008,179.410 203.898 C 179.478 203.788,179.506 203.713,179.472 203.731 C 179.438 203.749,178.916 203.824,178.311 203.898 M152.608 224.088 C 152.608 226.342,152.637 227.264,152.673 226.137 C 152.708 225.010,152.708 223.166,152.673 222.039 C 152.637 220.912,152.608 221.834,152.608 224.088 M201.367 222.889 C 201.367 223.713,201.402 224.050,201.445 223.638 C 201.488 223.226,201.488 222.551,201.445 222.139 C 201.402 221.727,201.367 222.064,201.367 222.889 M182.966 221.837 C 183.602 221.877,184.592 221.877,185.165 221.836 C 185.738 221.796,185.217 221.763,184.008 221.764 C 182.799 221.764,182.330 221.797,182.966 221.837 M244.434 223.436 C 245.015 223.476,245.915 223.476,246.433 223.435 C 246.952 223.394,246.477 223.361,245.377 223.361 C 244.278 223.362,243.854 223.395,244.434 223.436 M244.235 224.835 C 244.815 224.876,245.715 224.875,246.234 224.834 C 246.752 224.793,246.277 224.760,245.177 224.761 C 244.078 224.761,243.654 224.795,244.235 224.835 M201.363 226.887 C 201.363 227.601,201.400 227.894,201.444 227.536 C 201.488 227.179,201.488 226.594,201.444 226.237 C 201.400 225.880,201.363 226.172,201.363 226.887 " stroke="none" fill="#caebdf" fill-rule="evenodd"></path></g></svg>